<?xml version="1.0" encoding="UTF-8" standalone="no"?>
<!-- Created with Inkscape (http://www.inkscape.org/) -->

<svg
   width="113.96431mm"
   height="131.74892mm"
   viewBox="0 0 113.96431 131.74892"
   version="1.1"
   id="svg5"
   xml:space="preserve"
   xmlns:inkscape="http://www.inkscape.org/namespaces/inkscape"
   xmlns:sodipodi="http://sodipodi.sourceforge.net/DTD/sodipodi-0.dtd"
   xmlns="http://www.w3.org/2000/svg"
   xmlns:svg="http://www.w3.org/2000/svg"><sodipodi:namedview
     id="namedview7"
     pagecolor="#505050"
     bordercolor="#eeeeee"
     borderopacity="1"
     inkscape:showpageshadow="0"
     inkscape:pageopacity="0"
     inkscape:pagecheckerboard="0"
     inkscape:deskcolor="#505050"
     inkscape:document-units="mm"
     showgrid="true"><inkscape:grid
       type="axonomgrid"
       id="grid5553"
       enabled="false" /></sodipodi:namedview><defs
     id="defs2" /><g
     inkscape:label="Camada 1"
     inkscape:groupmode="layer"
     id="layer1"
     transform="translate(-159.69853,-34.631001)"><g
       id="g6934"
       transform="matrix(1.7957738,0,0,1.7957738,-180.02022,-47.566118)"><path
         style="fill:#000000;fill-opacity:1;stroke:none;stroke-width:0.874165;stroke-dasharray:none;stroke-opacity:1;paint-order:stroke fill markers"
         d="m 189.1768,64.123859 v 36.676521 l 31.76277,18.33825 31.69973,-18.33825 V 64.123859 L 220.94715,45.772536 Z"
         id="path5188" /><path
         style="fill:none;fill-opacity:1;stroke:none;stroke-width:0.777624;stroke-dasharray:none;stroke-opacity:1;paint-order:stroke fill markers"
         d="M 192.68127,66.148445 V 98.77432 l 28.25482,16.31294 28.19874,-16.31294 V 66.148445 l -28.192,-16.32456 z"
         id="path1925" /><path
         style="fill:#164450;fill-opacity:1;stroke:#18c8e3;stroke-width:0.248;stroke-linecap:butt;stroke-linejoin:round;stroke-dasharray:0.248, 0.248;stroke-dashoffset:0;stroke-opacity:1;paint-order:markers stroke fill"
         d="m 246.77701,67.462552 -25.96404,-14.460368 -0.0167,23.55226 0.0679,5.897375 z"
         id="path4126"
         sodipodi:nodetypes="ccccc" /><path
         style="fill:#000000;fill-opacity:0.980392;stroke:none;stroke-width:1;stroke-linecap:round;stroke-linejoin:round;stroke-dashoffset:4.65639;stroke-opacity:1"
         d="m 194.83731,97.40374 4.32394,2.5107 4.32394,2.5107 4.32394,2.51069 4.32394,2.51069 4.32394,2.51069 4.32394,2.51069 4.33629,-2.4893 4.33629,-2.48929 4.33628,-2.4893 4.33629,-2.4893 4.33629,-2.48931 4.33629,-2.48932 -4.32394,-2.51069 -4.32394,-2.5107 L 233.82686,90 l -4.32393,-2.51071 -4.32394,-2.5107 -4.32394,-2.510704 -4.33629,2.489314 -4.33629,2.48931 -4.33629,2.48932 -4.33629,2.4893 -4.33629,2.48931 z"
         id="path5944" /><path
         style="fill:#164450;fill-opacity:1;stroke:#18c8e3;stroke-width:0.248;stroke-dasharray:0.248, 0.248;stroke-dashoffset:0;stroke-opacity:1;paint-order:markers stroke fill"
         d="m 233.72286,104.96255 -5.41158,-2.43372 0.0569,-7.3302 -1.08893,-4.48608 -6.54678,1.75 12.99039,-7.5 z"
         id="path2760"
         sodipodi:nodetypes="ccccccc" /><path
         style="fill:#164450;fill-opacity:1;stroke:#18c8e3;stroke-width:0.248;stroke-linecap:butt;stroke-linejoin:round;stroke-dasharray:0.248, 0.248;stroke-dashoffset:0;stroke-opacity:1;paint-order:markers stroke fill"
         d="m 194.80328,67.462552 25.96404,-14.460368 0.0167,23.55226 -0.0679,5.897375 z"
         id="path3206"
         sodipodi:nodetypes="ccccc" /><path
         style="fill:#164450;fill-opacity:1;stroke:#18c8e3;stroke-width:0.248;stroke-dasharray:0.248, 0.248;stroke-dashoffset:0;stroke-opacity:1;paint-order:markers stroke fill"
         d="m 207.79366,104.96255 4.33013,-2.5 v -13 l 2.16506,-0.75 6.4952,3.75 -12.99039,-7.5 z"
         id="path3166"
         sodipodi:nodetypes="ccccccc" /><g
         id="g4029"
         transform="translate(-16.233601,11.274178)"><path
           style="fill:#164450;fill-opacity:1;stroke:#18c8e3;stroke-width:0.248;stroke-linecap:butt;stroke-linejoin:round;stroke-dasharray:0.248, 0.248;stroke-dashoffset:0;stroke-opacity:1;paint-order:markers stroke fill"
           d="m 245.73365,78.168534 -2.21664,-0.75 -6.4952,3.749999 0.0516,2.000001 z"
           id="path2912"
           sodipodi:nodetypes="ccccc" /><g
           id="g4050"
           transform="translate(-1.0583333)"><g
             id="g4039"><path
               style="fill:#164450;fill-opacity:1;stroke:#18c8e3;stroke-width:0.248;stroke-dasharray:0.248, 0.248;stroke-dashoffset:0;stroke-opacity:1;paint-order:markers stroke fill"
               d="m 245.00419,87.188373 -3.31138,-1.203016 -3.61683,2.203014 v 3.000002 z"
               id="path2968" /><path
               style="fill:#164450;fill-opacity:1;stroke:#18c8e3;stroke-width:0.248;stroke-dasharray:0.248, 0.248;stroke-dashoffset:0;stroke-opacity:1;paint-order:markers stroke fill"
               d="m 238.07598,101.18838 v -6.000007 -7 l 0.74221,-0.452082 2.7219,1.452082 -0.17676,4.102052 0.17675,5.915513 z"
               id="path3162"
               sodipodi:nodetypes="cccccccc" /><path
               style="fill:#19cae5;fill-opacity:0.988235;stroke:none;stroke-width:1;stroke-linecap:round;stroke-linejoin:round;stroke-dashoffset:4.65639;stroke-opacity:1"
               d="m 238.07598,91.188373 4.33013,-2.5 2.59808,-1.5 v 4 l -2.59808,1.5 -4.33013,2.5 z"
               id="path2950" /></g><path
             style="fill:#19cae5;fill-opacity:0.988235;stroke:none;stroke-width:1;stroke-linecap:round;stroke-linejoin:round;stroke-dashoffset:4.65639;stroke-opacity:1"
             d="m 238.07598,83.188373 4.33013,-2.5 4.33013,-2.5 v 5 l -4.33013,2.5 -4.33013,2.5 z"
             id="path2948" /></g></g><g
         id="g4054"
         transform="translate(-16.233601,11.274178)"><path
           style="fill:#164450;fill-opacity:1;stroke:#18c8e3;stroke-width:0.248;stroke-dasharray:0.248, 0.248;stroke-dashoffset:0;stroke-opacity:1;paint-order:markers stroke fill"
           d="m 228.35739,78.188372 2.16506,-0.75 6.4952,3.75 -1e-5,2.000001 z"
           id="path3164" /><path
           style="fill:#19cae5;fill-opacity:0.988235;stroke:none;stroke-width:1;stroke-linecap:round;stroke-linejoin:round;stroke-dashoffset:4.65639;stroke-opacity:1"
           d="m 237.01764,101.18838 v -5.000007 -5 -5 -3 l -8.66025,-5 v 3 5.0838 4.9162 5 l 4.33013,2.5 z"
           id="path2946" /></g><path
         style="fill:#000000;fill-opacity:1;stroke:none;stroke-width:0.61798;stroke-linecap:round;stroke-linejoin:round;stroke-dashoffset:4.65639;stroke-opacity:1"
         d="m 204.87941,66.314656 2.67212,1.551564 2.6721,1.551565 2.67211,1.551559 2.67211,1.551558 2.67211,1.551559 2.67211,1.551559 2.67975,-1.53834 2.67974,-1.538334 2.67974,-1.53834 2.67975,-1.53834 2.67974,-1.538346 2.67975,-1.538352 -2.67211,-1.551559 -2.67211,-1.551565 -2.67212,-1.551555 -2.67212,-1.551557 -2.6721,-1.551558 -2.67212,-1.551557 -2.67974,1.53834 -2.67975,1.538338 -2.67974,1.538339 -2.67973,1.538337 -2.67974,1.538345 z"
         id="path4149"
         sodipodi:nodetypes="ccccccccccccccccccccccccc" /><g
         id="g4241"
         transform="translate(10.224879,-17.47614)"><path
           style="fill:#164450;fill-opacity:1;stroke:#18c8e3;stroke-width:0.250161;stroke-linecap:butt;stroke-linejoin:round;stroke-dasharray:0.250161, 0.250161;stroke-dashoffset:0;stroke-opacity:1;paint-order:markers stroke fill"
           d="m 194.65454,75.855186 v 4.841263 l 16.04428,9.206529 -0.0116,-4.740321 z"
           id="path3773"
           sodipodi:nodetypes="ccccc" /><path
           style="fill:#164450;fill-opacity:1;stroke:#18c8e3;stroke-width:0.250161;stroke-linecap:butt;stroke-linejoin:round;stroke-dasharray:0.250161, 0.250161;stroke-dashoffset:0;stroke-opacity:1;paint-order:markers stroke fill"
           d="m 226.71178,75.855186 v 4.841263 l -16.04427,9.206529 0.0116,-4.740321 z"
           id="path4002"
           sodipodi:nodetypes="ccccc" /><g
           id="g4229"><path
             style="fill:#18c8e3;fill-opacity:1;stroke:none;stroke-width:0.61798;stroke-linecap:round;stroke-linejoin:round;stroke-dashoffset:4.65639;stroke-opacity:1"
             d="m 194.65453,75.853292 2.67212,1.551564 2.6721,1.551565 2.67211,1.551559 2.67211,1.551558 2.67211,1.551559 2.67211,1.551559 2.67975,-1.53834 2.67974,-1.538334 2.67974,-1.53834 2.67975,-1.53834 2.67974,-1.538346 2.67975,-1.538352 -2.67211,-1.551559 -2.67211,-1.551565 -2.67212,-1.551555 -2.67212,-1.551557 -2.6721,-1.551558 -2.67212,-1.551557 -2.67974,1.53834 -2.67975,1.538338 -2.67974,1.538339 -2.67973,1.538337 -2.67974,1.538345 z"
             id="path2810"
             sodipodi:nodetypes="ccccccccccccccccccccccccc" /><g
             id="g3227"
             style="fill:#000000;fill-opacity:0.980392"
             transform="matrix(0.64909283,0,0,0.64909283,53.722769,62.289374)"><path
               style="fill:#000000;fill-opacity:0.980392;stroke:none;stroke-width:0.0172496;stroke-opacity:0.980392;paint-order:stroke fill markers"
               d="m 237.37782,26.348338 0.005,-1.935784 -5.90386,-3.454749 5.92123,-3.577969 0.004,-1.812504 -9.34992,5.367447 z"
               id="path3517"
               sodipodi:nodetypes="ccccccc" /><path
               style="fill:#000000;fill-opacity:0.980392;stroke:none;stroke-width:0.0479999;stroke-opacity:0.980392;paint-order:stroke fill markers"
               d="m 234.10773,26.63327 14.1793,-12.765084 1.41422,1.414216 -14.17931,12.765082 z"
               id="path3519"
               sodipodi:nodetypes="ccccc" /><path
               style="fill:#000000;fill-opacity:0.980392;stroke:none;stroke-width:0.0172496;stroke-opacity:0.980392;paint-order:stroke fill markers"
               d="m 246.3352,15.567332 -0.005,1.935784 5.90386,3.454749 -5.92124,3.577969 -0.004,1.812504 9.34993,-5.367446 z"
               id="path2787"
               sodipodi:nodetypes="ccccccc" /></g></g></g><g
         id="g4249"
         style="fill:#164450;fill-opacity:1"
         transform="translate(10.224879,-17.47614)"><path
           style="fill:#164450;fill-opacity:1;stroke:#18c8e3;stroke-width:0.248;stroke-linecap:butt;stroke-linejoin:round;stroke-dasharray:0.248, 0.248;stroke-dashoffset:0;stroke-opacity:1;paint-order:markers stroke fill"
           d="m 184.5784,84.938692 10.07613,-1.147898 16.03266,9.309366 -0.0479,6.827799 z"
           id="path4243"
           sodipodi:nodetypes="ccccc" /><path
           style="fill:#164450;fill-opacity:1;stroke:#18c8e3;stroke-width:0.248;stroke-linecap:butt;stroke-linejoin:round;stroke-dasharray:0.248, 0.248;stroke-dashoffset:0;stroke-opacity:1;paint-order:markers stroke fill"
           d="m 236.67609,84.938692 -10.07613,-1.147898 -15.91277,9.309366 -0.057,6.843866 z"
           id="path4245"
           sodipodi:nodetypes="ccccc" /></g><g
         id="g4460"
         style="stroke:#18c8e3;stroke-width:0.2;stroke-dasharray:none;stroke-opacity:1"
         transform="translate(10.224879,-17.47614)"><path
           style="fill:#19cae5;fill-opacity:0.988235;stroke:#18c8e3;stroke-width:0.2;stroke-linecap:butt;stroke-linejoin:round;stroke-dasharray:none;stroke-dashoffset:4.65639;stroke-opacity:1;paint-order:markers stroke fill"
           d="m 236.48836,84.938692 v 5 5 5 4.999998 5 5 l -4.33013,2.5 -4.33013,2.5 -4.33012,2.5 v -5 -5 -5 -5 l -4.33013,2.5 -4.33013,2.5 -4.33013,2.5 v -5 -4.999998 l 4.33013,-2.5 4.33013,-2.5 4.33013,-2.5 4.33012,-2.5 4.33013,-2.5 z"
           id="path2890" /><path
           style="fill:#19cae5;fill-opacity:0.988235;stroke:#18c8e3;stroke-width:0.2;stroke-linecap:round;stroke-linejoin:round;stroke-dasharray:none;stroke-dashoffset:4.65639;stroke-opacity:1;paint-order:markers stroke fill"
           d="m 184.5784,84.938692 v 5 5 5 4.999998 5 5 l 4.33013,2.5 4.33013,2.5 4.33012,2.5 v -5 -5 -5 -5 l 4.33013,2.5 4.33013,2.5 4.33013,2.5 v -5 -4.999998 l -4.33013,-2.5 -4.33013,-2.5 -4.33013,-2.5 -4.33012,-2.5 -4.33013,-2.5 z"
           id="path2810-3" /></g></g></g></svg>
