<?xml version="1.0" encoding="UTF-8" standalone="no"?>
<!-- Created with Inkscape (http://www.inkscape.org/) -->

<svg
   width="355.5957mm"
   height="254.44289mm"
   viewBox="0 0 355.5957 254.44289"
   version="1.1"
   id="svg5"
   xml:space="preserve"
   xmlns:inkscape="http://www.inkscape.org/namespaces/inkscape"
   xmlns:sodipodi="http://sodipodi.sourceforge.net/DTD/sodipodi-0.dtd"
   xmlns="http://www.w3.org/2000/svg"
   xmlns:svg="http://www.w3.org/2000/svg"><sodipodi:namedview
     id="namedview7"
     pagecolor="#505050"
     bordercolor="#eeeeee"
     borderopacity="1"
     inkscape:showpageshadow="0"
     inkscape:pageopacity="0"
     inkscape:pagecheckerboard="0"
     inkscape:deskcolor="#505050"
     inkscape:document-units="mm"
     showgrid="true"
     inkscape:zoom="0.84809203"
     inkscape:cx="800.62066"
     inkscape:cy="321.30947"
     inkscape:window-width="1366"
     inkscape:window-height="704"
     inkscape:window-x="0"
     inkscape:window-y="0"
     inkscape:window-maximized="1"
     inkscape:current-layer="layer1"
     showguides="false"><inkscape:grid
       type="axonomgrid"
       id="grid5553"
       enabled="true" /></sodipodi:namedview><defs
     id="defs2" /><g
     inkscape:label="Camada 1"
     inkscape:groupmode="layer"
     id="layer1"
     transform="translate(46.703471,48.746457)"><g
       id="g11051"><path
         style="fill:none;fill-opacity:1;stroke:none;stroke-width:2.46834;stroke-dasharray:none;stroke-opacity:1;paint-order:stroke fill markers"
         d="M 129.69639,26.712638 V 130.27426 l 89.6869,51.78078 89.50892,-51.78078 V 26.712638 L 219.4047,-25.105057 Z"
         id="path5188" /><path
         style="fill:#000000;fill-opacity:1;stroke:none;stroke-width:1.19063;stroke-dasharray:none;stroke-opacity:1;paint-order:stroke fill markers"
         d="M 176.07566,53.506792 V 103.461 l 43.26157,24.97708 43.17571,-24.97708 V 53.506792 L 219.34755,28.511899 Z"
         id="path9767" /><path
         style="fill:none;fill-opacity:1;stroke:#18c8e3;stroke-width:1.07087;stroke-miterlimit:0;stroke-dasharray:none;stroke-dashoffset:0;stroke-opacity:1;paint-order:stroke fill markers"
         d="m 258.16592,56.018137 v 44.929703 l -38.91023,22.46484 -38.833,-22.46484 V 56.018137 L 219.24641,33.53728 Z"
         id="path8612" /><path
         style="fill:none;fill-opacity:1;stroke:none;stroke-width:0.840887;stroke-dasharray:none;stroke-opacity:1;paint-order:stroke fill markers"
         d="m 188.77128,60.841273 v 35.279993 l 30.55334,17.639994 30.49271,-17.639994 V 60.841273 L 219.33191,43.18871 Z"
         id="path1925" /><path
         style="fill:#164450;fill-opacity:1;stroke:#18c8e3;stroke-width:0.268175;stroke-linecap:butt;stroke-linejoin:round;stroke-dasharray:0.268175, 0.268175;stroke-dashoffset:0;stroke-opacity:1;paint-order:markers stroke fill"
         d="m 247.2677,62.262284 -28.07621,-15.63672 -0.0181,25.468237 0.0734,6.377128 z"
         id="path4126"
         sodipodi:nodetypes="ccccc" /><path
         style="fill:#000000;fill-opacity:0.980392;stroke:none;stroke-width:1.08135;stroke-linecap:round;stroke-linejoin:round;stroke-dashoffset:4.65639;stroke-opacity:1"
         d="m 191.1027,94.639194 4.67569,2.714947 4.6757,2.714939 4.67569,2.71494 4.6757,2.71493 4.67568,2.71493 4.6757,2.71493 4.68905,-2.6918 4.68904,-2.69179 4.68904,-2.6918 4.68904,-2.6918 4.68906,-2.691821 4.68904,-2.691828 -4.67569,-2.71494 -4.67569,-2.714936 -4.6757,-2.714941 -4.67568,-2.714952 -4.67569,-2.714947 -4.6757,-2.714952 -4.68904,2.691822 -4.68905,2.69181 -4.68904,2.691828 -4.68905,2.691805 -4.68905,2.691816 z"
         id="path5944" /><path
         style="fill:#164450;fill-opacity:1;stroke:#18c8e3;stroke-width:0.268175;stroke-dasharray:0.268175, 0.268175;stroke-dashoffset:0;stroke-opacity:1;paint-order:markers stroke fill"
         d="m 233.15159,102.81291 -5.85181,-2.63171 0.0615,-7.926505 -1.17752,-4.851026 -7.07935,1.892366 14.04715,-8.110129 z"
         id="path2760"
         sodipodi:nodetypes="ccccccc" /><path
         style="fill:#164450;fill-opacity:1;stroke:#18c8e3;stroke-width:0.268175;stroke-linecap:butt;stroke-linejoin:round;stroke-dasharray:0.268175, 0.268175;stroke-dashoffset:0;stroke-opacity:1;paint-order:markers stroke fill"
         d="m 191.06591,62.262284 28.07621,-15.63672 0.0181,25.468237 -0.0734,6.377128 z"
         id="path3206"
         sodipodi:nodetypes="ccccc" /><path
         style="fill:#164450;fill-opacity:1;stroke:#18c8e3;stroke-width:0.268175;stroke-dasharray:0.268175, 0.268175;stroke-dashoffset:0;stroke-opacity:1;paint-order:markers stroke fill"
         d="m 205.11305,102.81291 4.68238,-2.70338 V 86.051986 l 2.3412,-0.811013 7.02358,4.055062 -14.04716,-8.110129 z"
         id="path3166"
         sodipodi:nodetypes="ccccccc" /><path
         style="fill:#164450;fill-opacity:1;stroke:#18c8e3;stroke-width:0.268175;stroke-linecap:butt;stroke-linejoin:round;stroke-dasharray:0.268175, 0.268175;stroke-dashoffset:0;stroke-opacity:1;paint-order:markers stroke fill"
         d="m 228.58526,86.030533 -2.39696,-0.811012 -7.02359,4.055061 0.0558,2.162703 z"
         id="path2912"
         sodipodi:nodetypes="ccccc" /><g
         id="g4050"
         transform="matrix(1.0813501,0,0,1.0813501,-38.283269,1.5029828)"><g
           id="g4039"><path
             style="fill:#164450;fill-opacity:1;stroke:#18c8e3;stroke-width:0.248;stroke-dasharray:0.248, 0.248;stroke-dashoffset:0;stroke-opacity:1;paint-order:markers stroke fill"
             d="m 245.00419,87.188373 -3.31138,-1.203016 -3.61683,2.203014 v 3.000002 z"
             id="path2968" /><path
             style="fill:#164450;fill-opacity:1;stroke:#18c8e3;stroke-width:0.248;stroke-dasharray:0.248, 0.248;stroke-dashoffset:0;stroke-opacity:1;paint-order:markers stroke fill"
             d="m 238.07598,101.18838 v -6.000007 -7 l 0.74221,-0.452082 2.7219,1.452082 -0.17676,4.102052 0.17675,5.915513 z"
             id="path3162"
             sodipodi:nodetypes="cccccccc" /><path
             style="fill:#19cae5;fill-opacity:0.988235;stroke:none;stroke-width:1;stroke-linecap:round;stroke-linejoin:round;stroke-dashoffset:4.65639;stroke-opacity:1"
             d="m 238.07598,91.188373 4.33013,-2.5 2.59808,-1.5 v 4 l -2.59808,1.5 -4.33013,2.5 z"
             id="path2950" /></g><path
           style="fill:#19cae5;fill-opacity:0.988235;stroke:none;stroke-width:1;stroke-linecap:round;stroke-linejoin:round;stroke-dashoffset:4.65639;stroke-opacity:1"
           d="m 238.07598,83.188373 4.33013,-2.5 4.33013,-2.5 v 5 l -4.33013,2.5 -4.33013,2.5 z"
           id="path2948" /></g><path
         style="fill:#164450;fill-opacity:1;stroke:#18c8e3;stroke-width:0.268175;stroke-dasharray:0.268175, 0.268175;stroke-dashoffset:0;stroke-opacity:1;paint-order:markers stroke fill"
         d="m 209.79544,86.051985 2.34119,-0.811012 7.02359,4.055062 -1e-5,2.162701 z"
         id="path3164" /><path
         style="fill:#19cae5;fill-opacity:0.988235;stroke:none;stroke-width:1.08135;stroke-linecap:round;stroke-linejoin:round;stroke-dashoffset:4.65639;stroke-opacity:1"
         d="m 219.16021,110.92304 v -5.40675 -5.40675 -5.406755 -3.244049 l -9.36477,-5.40675 v 3.24405 5.49737 5.316134 5.40675 l 4.68239,2.70337 z"
         id="path2946" /><path
         style="fill:#000000;fill-opacity:1;stroke:none;stroke-width:0.668251;stroke-linecap:round;stroke-linejoin:round;stroke-dashoffset:4.65639;stroke-opacity:1"
         d="m 201.96174,61.021006 2.88949,1.677784 2.88947,1.677785 2.88949,1.677779 2.88948,1.677777 2.88949,1.677778 2.88949,1.677779 2.89775,-1.663485 2.89773,-1.663478 2.89774,-1.663482 2.89774,-1.663485 2.89774,-1.663491 2.89775,-1.663496 -2.88949,-1.677779 -2.88948,-1.677785 -2.8895,-1.677774 -2.88949,-1.677776 -2.88949,-1.677777 -2.88949,-1.677776 -2.89773,1.663483 -2.89776,1.663482 -2.89773,1.663483 -2.89773,1.663481 -2.89774,1.663489 z"
         id="path4149"
         sodipodi:nodetypes="ccccccccccccccccccccccccc" /><path
         style="fill:#164450;fill-opacity:1;stroke:#18c8e3;stroke-width:0.270512;stroke-linecap:butt;stroke-linejoin:round;stroke-dasharray:0.270512, 0.270512;stroke-dashoffset:0;stroke-opacity:1;paint-order:markers stroke fill"
         d="m 201.96174,52.439836 v 5.235099 l 17.34948,9.955482 -0.0126,-5.125947 z"
         id="path3773"
         sodipodi:nodetypes="ccccc" /><path
         style="fill:#164450;fill-opacity:1;stroke:#18c8e3;stroke-width:0.270512;stroke-linecap:butt;stroke-linejoin:round;stroke-dasharray:0.270512, 0.270512;stroke-dashoffset:0;stroke-opacity:1;paint-order:markers stroke fill"
         d="m 236.62684,52.439836 v 5.235099 l -17.34947,9.955482 0.0126,-5.125947 z"
         id="path4002"
         sodipodi:nodetypes="ccccc" /><g
         id="g4229"
         transform="matrix(1.0813501,0,0,1.0813501,-8.5279597,-29.586176)"><path
           style="fill:#18c8e3;fill-opacity:1;stroke:none;stroke-width:0.61798;stroke-linecap:round;stroke-linejoin:round;stroke-dashoffset:4.65639;stroke-opacity:1"
           d="m 194.65453,75.853292 2.67212,1.551564 2.6721,1.551565 2.67211,1.551559 2.67211,1.551558 2.67211,1.551559 2.67211,1.551559 2.67975,-1.53834 2.67974,-1.538334 2.67974,-1.53834 2.67975,-1.53834 2.67974,-1.538346 2.67975,-1.538352 -2.67211,-1.551559 -2.67211,-1.551565 -2.67212,-1.551555 -2.67212,-1.551557 -2.6721,-1.551558 -2.67212,-1.551557 -2.67974,1.53834 -2.67975,1.538338 -2.67974,1.538339 -2.67973,1.538337 -2.67974,1.538345 z"
           id="path2810"
           sodipodi:nodetypes="ccccccccccccccccccccccccc" /><g
           id="g3227"
           style="fill:#000000;fill-opacity:0.980392"
           transform="matrix(0.64909283,0,0,0.64909283,53.722769,62.289374)"><path
             style="fill:#000000;fill-opacity:0.980392;stroke:none;stroke-width:0.0172496;stroke-opacity:0.980392;paint-order:stroke fill markers"
             d="m 237.37782,26.348338 0.005,-1.935784 -5.90386,-3.454749 5.92123,-3.577969 0.004,-1.812504 -9.34992,5.367447 z"
             id="path3517"
             sodipodi:nodetypes="ccccccc" /><path
             style="fill:#000000;fill-opacity:0.980392;stroke:none;stroke-width:0.0479999;stroke-opacity:0.980392;paint-order:stroke fill markers"
             d="m 234.10773,26.63327 14.1793,-12.765084 1.41422,1.414216 -14.17931,12.765082 z"
             id="path3519"
             sodipodi:nodetypes="ccccc" /><path
             style="fill:#000000;fill-opacity:0.980392;stroke:none;stroke-width:0.0172496;stroke-opacity:0.980392;paint-order:stroke fill markers"
             d="m 246.3352,15.567332 -0.005,1.935784 5.90386,3.454749 -5.92124,3.577969 -0.004,1.812504 9.34993,-5.367446 z"
             id="path2787"
             sodipodi:nodetypes="ccccccc" /></g></g><path
         style="fill:#164450;fill-opacity:1;stroke:#18c8e3;stroke-width:0.268175;stroke-linecap:butt;stroke-linejoin:round;stroke-dasharray:0.268175, 0.268175;stroke-dashoffset:0;stroke-opacity:1;paint-order:markers stroke fill"
         d="m 191.06591,62.262286 10.89582,-1.24128 17.33692,10.066684 -0.0518,7.38324 z"
         id="path4243"
         sodipodi:nodetypes="ccccc" /><path
         style="fill:#164450;fill-opacity:1;stroke:#18c8e3;stroke-width:0.268175;stroke-linecap:butt;stroke-linejoin:round;stroke-dasharray:0.268175, 0.268175;stroke-dashoffset:0;stroke-opacity:1;paint-order:markers stroke fill"
         d="m 247.40175,62.262286 -10.89582,-1.24128 -17.20728,10.066684 -0.0616,7.400615 z"
         id="path4245"
         sodipodi:nodetypes="ccccc" /><path
         style="fill:#19cae5;fill-opacity:0.988235;stroke:#18c8e3;stroke-width:0.21627;stroke-linecap:butt;stroke-linejoin:round;stroke-dasharray:none;stroke-dashoffset:4.65639;stroke-opacity:1;paint-order:markers stroke fill"
         d="m 247.19875,62.262286 v 5.40675 5.40675 5.406751 5.406748 5.40675 5.40675 l -4.68239,2.703376 -4.68239,2.703379 -4.68237,2.70337 V 97.406161 91.99941 86.59266 81.18591 l -4.68239,2.703375 -4.68238,2.703375 -4.68239,2.703375 v -5.40675 -5.406748 l 4.68239,-2.703376 4.68238,-2.703375 4.68239,-2.703375 4.68237,-2.703375 4.68239,-2.703375 z"
         id="path2890" /><path
         style="fill:#19cae5;fill-opacity:0.988235;stroke:#18c8e3;stroke-width:0.21627;stroke-linecap:round;stroke-linejoin:round;stroke-dasharray:none;stroke-dashoffset:4.65639;stroke-opacity:1;paint-order:markers stroke fill"
         d="m 191.06591,62.262286 v 5.40675 5.40675 5.406751 5.406748 5.40675 5.40675 l 4.68238,2.703376 4.68239,2.703379 4.68237,2.70337 V 97.406161 91.99941 86.59266 81.18591 l 4.68239,2.703375 4.68239,2.703375 4.68239,2.703375 v -5.40675 -5.406748 l -4.68239,-2.703376 -4.68239,-2.703375 -4.68239,-2.703375 -4.68237,-2.703375 -4.68239,-2.703375 z"
         id="path2810-3" /><path
         style="fill:#000000;fill-opacity:1;stroke:none;stroke-width:1.19063;stroke-dasharray:none;stroke-opacity:1;paint-order:stroke fill markers"
         d="M 87.175714,53.506792 V 103.461 L 130.43726,128.43808 173.61297,103.461 V 53.506792 L 130.44758,28.511899 Z"
         id="path9959" /><path
         style="fill:#000000;fill-opacity:1;stroke:none;stroke-width:1.19063;stroke-dasharray:none;stroke-opacity:1;paint-order:stroke fill markers"
         d="m 131.62569,130.76513 v 49.95423 l 43.26157,24.97708 43.17571,-24.97708 v -49.95423 l -43.16539,-24.99491 z"
         id="path9961" /><path
         style="fill:#000000;fill-opacity:1;stroke:none;stroke-width:1.19063;stroke-dasharray:none;stroke-opacity:1;paint-order:stroke fill markers"
         d="m 42.196526,130.76513 v 49.95423 L 85.458075,205.69644 128.6338,180.71936 V 130.76513 L 85.468395,105.77022 Z"
         id="path9967" /><path
         style="fill:#000000;fill-opacity:1;stroke:none;stroke-width:1.19063;stroke-dasharray:none;stroke-opacity:1;paint-order:stroke fill markers"
         d="m 220.52558,-23.751524 v 49.954203 l 43.26157,24.977062 43.17571,-24.977062 v -49.954203 l -43.16539,-24.994934 z"
         id="path9969" /><path
         style="fill:#000000;fill-opacity:1;stroke:none;stroke-width:1.19063;stroke-dasharray:none;stroke-opacity:1;paint-order:stroke fill markers"
         d="m 131.62556,-23.751524 v 49.954203 l 43.26157,24.977062 43.17571,-24.977062 v -49.954203 l -43.16539,-24.994934 z"
         id="path9971" /><path
         style="fill:#000000;fill-opacity:1;stroke:none;stroke-width:1.19063;stroke-dasharray:none;stroke-opacity:1;paint-order:stroke fill markers"
         d="m -46.703471,130.76513 v 49.95423 L -3.4419213,205.69644 39.733813,180.71936 V 130.76513 L -3.4316013,105.77022 Z"
         id="path10198" /><path
         style="fill:#000000;fill-opacity:1;stroke:none;stroke-width:1.19063;stroke-dasharray:none;stroke-opacity:1;paint-order:stroke fill markers"
         d="M -1.7242863,53.506792 V 103.461 L 41.537264,128.43808 84.712962,103.461 V 53.506792 L 41.547584,28.511899 Z"
         id="path10200" /><path
         style="fill:#000000;fill-opacity:1;stroke:none;stroke-width:1.19063;stroke-dasharray:none;stroke-opacity:1;paint-order:stroke fill markers"
         d="M 42.725693,-23.751562 V 26.202664 L 85.987242,51.179762 129.16297,26.202664 V -23.751562 L 85.997562,-48.74646 Z"
         id="path10202" /></g></g></svg>
