<?xml version="1.0" encoding="UTF-8" standalone="no"?>
<!-- Created with Inkscape (http://www.inkscape.org/) -->

<svg
   width="162.85138mm"
   height="188.26289mm"
   viewBox="0 0 162.85138 188.26289"
   version="1.1"
   id="svg5"
   xml:space="preserve"
   xmlns:inkscape="http://www.inkscape.org/namespaces/inkscape"
   xmlns:sodipodi="http://sodipodi.sourceforge.net/DTD/sodipodi-0.dtd"
   xmlns="http://www.w3.org/2000/svg"
   xmlns:svg="http://www.w3.org/2000/svg"><sodipodi:namedview
     id="namedview7"
     pagecolor="#505050"
     bordercolor="#eeeeee"
     borderopacity="1"
     inkscape:showpageshadow="0"
     inkscape:pageopacity="0"
     inkscape:pagecheckerboard="0"
     inkscape:deskcolor="#505050"
     inkscape:document-units="mm"
     showgrid="true"
     inkscape:zoom="0.42404602"
     inkscape:cx="674.4551"
     inkscape:cy="352.55608"
     inkscape:window-width="1366"
     inkscape:window-height="704"
     inkscape:window-x="0"
     inkscape:window-y="0"
     inkscape:window-maximized="1"
     inkscape:current-layer="layer1"><inkscape:grid
       type="axonomgrid"
       id="grid5553"
       enabled="false" /></sodipodi:namedview><defs
     id="defs2" /><g
     inkscape:label="Camada 1"
     inkscape:groupmode="layer"
     id="layer1"
     transform="translate(-135.25497,-6.3738977)"><g
       id="g7417"><path
         style="fill:none;fill-opacity:1;stroke:#18c8e3;stroke-width:2.21272;stroke-dasharray:none;stroke-opacity:1;paint-order:stroke fill markers"
         d="M 136.36134,54.103513 V 146.94049 L 216.76045,193.35895 297,146.94049 V 54.103513 L 216.77963,7.6519582 Z"
         id="path7380" /><path
         style="fill:#000000;fill-opacity:1;stroke:none;stroke-width:1.5698;stroke-dasharray:none;stroke-opacity:1;paint-order:stroke fill markers"
         d="m 159.69852,67.585828 v 65.862732 l 57.03875,32.93135 56.92555,-32.93135 V 67.585828 L 216.75088,34.631003 Z"
         id="path5188" /><path
         style="fill:none;fill-opacity:1;stroke:none;stroke-width:1.39644;stroke-dasharray:none;stroke-opacity:1;paint-order:stroke fill markers"
         d="m 165.99176,71.221526 v 58.588694 l 50.73926,29.29435 50.63856,-29.29435 V 71.221526 L 216.74313,41.906309 Z"
         id="path1925" /><path
         style="fill:#164450;fill-opacity:1;stroke:#18c8e3;stroke-width:0.445352;stroke-linecap:butt;stroke-linejoin:round;stroke-dasharray:0.445352, 0.445352;stroke-dashoffset:0;stroke-opacity:1;paint-order:markers stroke fill"
         d="m 263.13547,73.581365 -46.62554,-25.96755 -0.03,42.294532 0.12193,10.590353 z"
         id="path4126"
         sodipodi:nodetypes="ccccc" /><path
         style="fill:#000000;fill-opacity:0.980392;stroke:none;stroke-width:1.79577;stroke-linecap:round;stroke-linejoin:round;stroke-dashoffset:4.65639;stroke-opacity:1"
         d="m 169.86352,127.34897 7.76481,4.50865 7.76482,4.50864 7.76482,4.50864 7.76482,4.50863 7.76482,4.50863 7.76482,4.50863 7.78699,-4.47022 7.787,-4.4702 7.78698,-4.47022 7.78699,-4.47022 7.787,-4.47024 7.78699,-4.47025 -7.76481,-4.50864 -7.76482,-4.50864 -7.76482,-4.50864 -7.7648,-4.50866 -7.76482,-4.50865 -7.76482,-4.50866 -7.78699,4.47025 -7.787,4.47023 -7.787,4.47026 -7.78699,4.47022 -7.787,4.47024 z"
         id="path5944" /><path
         style="fill:#164450;fill-opacity:1;stroke:#18c8e3;stroke-width:0.445352;stroke-dasharray:0.445352, 0.445352;stroke-dashoffset:0;stroke-opacity:1;paint-order:markers stroke fill"
         d="m 239.69317,140.92288 -9.71798,-4.37041 0.10218,-13.16338 -1.95547,-8.05599 -11.75653,3.14261 23.3278,-13.46831 z"
         id="path2760"
         sodipodi:nodetypes="ccccccc" /><path
         style="fill:#164450;fill-opacity:1;stroke:#18c8e3;stroke-width:0.445352;stroke-linecap:butt;stroke-linejoin:round;stroke-dasharray:0.445352, 0.445352;stroke-dashoffset:0;stroke-opacity:1;paint-order:markers stroke fill"
         d="m 169.80241,73.581365 46.62554,-25.96755 0.03,42.294532 -0.12193,10.590353 z"
         id="path3206"
         sodipodi:nodetypes="ccccc" /><path
         style="fill:#164450;fill-opacity:1;stroke:#18c8e3;stroke-width:0.445352;stroke-dasharray:0.445352, 0.445352;stroke-dashoffset:0;stroke-opacity:1;paint-order:markers stroke fill"
         d="m 193.13019,140.92288 7.77593,-4.48944 v -23.34505 l 3.88796,-1.34683 11.66391,6.73415 -23.3278,-13.46831 z"
         id="path3166"
         sodipodi:nodetypes="ccccccc" /><g
         id="g4029"
         transform="matrix(1.7957738,0,0,1.7957738,-209.1721,-27.320245)"><path
           style="fill:#164450;fill-opacity:1;stroke:#18c8e3;stroke-width:0.248;stroke-linecap:butt;stroke-linejoin:round;stroke-dasharray:0.248, 0.248;stroke-dashoffset:0;stroke-opacity:1;paint-order:markers stroke fill"
           d="m 245.73365,78.168534 -2.21664,-0.75 -6.4952,3.749999 0.0516,2.000001 z"
           id="path2912"
           sodipodi:nodetypes="ccccc" /><g
           id="g4050"
           transform="translate(-1.0583333)"><g
             id="g4039"><path
               style="fill:#164450;fill-opacity:1;stroke:#18c8e3;stroke-width:0.248;stroke-dasharray:0.248, 0.248;stroke-dashoffset:0;stroke-opacity:1;paint-order:markers stroke fill"
               d="m 245.00419,87.188373 -3.31138,-1.203016 -3.61683,2.203014 v 3.000002 z"
               id="path2968" /><path
               style="fill:#164450;fill-opacity:1;stroke:#18c8e3;stroke-width:0.248;stroke-dasharray:0.248, 0.248;stroke-dashoffset:0;stroke-opacity:1;paint-order:markers stroke fill"
               d="m 238.07598,101.18838 v -6.000007 -7 l 0.74221,-0.452082 2.7219,1.452082 -0.17676,4.102052 0.17675,5.915513 z"
               id="path3162"
               sodipodi:nodetypes="cccccccc" /><path
               style="fill:#19cae5;fill-opacity:0.988235;stroke:none;stroke-width:1;stroke-linecap:round;stroke-linejoin:round;stroke-dashoffset:4.65639;stroke-opacity:1"
               d="m 238.07598,91.188373 4.33013,-2.5 2.59808,-1.5 v 4 l -2.59808,1.5 -4.33013,2.5 z"
               id="path2950" /></g><path
             style="fill:#19cae5;fill-opacity:0.988235;stroke:none;stroke-width:1;stroke-linecap:round;stroke-linejoin:round;stroke-dashoffset:4.65639;stroke-opacity:1"
             d="m 238.07598,83.188373 4.33013,-2.5 4.33013,-2.5 v 5 l -4.33013,2.5 -4.33013,2.5 z"
             id="path2948" /></g></g><g
         id="g4054"
         transform="matrix(1.7957738,0,0,1.7957738,-209.1721,-27.320245)"><path
           style="fill:#164450;fill-opacity:1;stroke:#18c8e3;stroke-width:0.248;stroke-dasharray:0.248, 0.248;stroke-dashoffset:0;stroke-opacity:1;paint-order:markers stroke fill"
           d="m 228.35739,78.188372 2.16506,-0.75 6.4952,3.75 -1e-5,2.000001 z"
           id="path3164" /><path
           style="fill:#19cae5;fill-opacity:0.988235;stroke:none;stroke-width:1;stroke-linecap:round;stroke-linejoin:round;stroke-dashoffset:4.65639;stroke-opacity:1"
           d="m 237.01764,101.18838 v -5.000007 -5 -5 -3 l -8.66025,-5 v 3 5.0838 4.9162 5 l 4.33013,2.5 z"
           id="path2946" /></g><path
         style="fill:#000000;fill-opacity:1;stroke:none;stroke-width:1.10975;stroke-linecap:round;stroke-linejoin:round;stroke-dashoffset:4.65639;stroke-opacity:1"
         d="m 187.89686,71.520004 4.79852,2.786258 4.79849,2.78626 4.7985,2.786249 4.79851,2.786247 4.7985,2.786249 4.79851,2.786249 4.81222,-2.762511 4.81221,-2.7625 4.81221,-2.76251 4.81222,-2.762511 4.81221,-2.762522 4.81222,-2.762532 -4.7985,-2.786249 -4.79851,-2.78626 -4.79852,-2.786241 -4.79852,-2.786246 -4.79849,-2.786247 -4.79852,-2.786245 -4.81221,2.76251 -4.81223,2.762507 -4.8122,2.762509 -4.81219,2.762505 -4.81221,2.76252 z"
         id="path4149"
         sodipodi:nodetypes="ccccccccccccccccccccccccc" /><g
         id="g4241"
         transform="matrix(1.7957738,0,0,1.7957738,-161.65865,-78.949312)"><path
           style="fill:#164450;fill-opacity:1;stroke:#18c8e3;stroke-width:0.250161;stroke-linecap:butt;stroke-linejoin:round;stroke-dasharray:0.250161, 0.250161;stroke-dashoffset:0;stroke-opacity:1;paint-order:markers stroke fill"
           d="m 194.65454,75.855186 v 4.841263 l 16.04428,9.206529 -0.0116,-4.740321 z"
           id="path3773"
           sodipodi:nodetypes="ccccc" /><path
           style="fill:#164450;fill-opacity:1;stroke:#18c8e3;stroke-width:0.250161;stroke-linecap:butt;stroke-linejoin:round;stroke-dasharray:0.250161, 0.250161;stroke-dashoffset:0;stroke-opacity:1;paint-order:markers stroke fill"
           d="m 226.71178,75.855186 v 4.841263 l -16.04427,9.206529 0.0116,-4.740321 z"
           id="path4002"
           sodipodi:nodetypes="ccccc" /><g
           id="g4229"><path
             style="fill:#18c8e3;fill-opacity:1;stroke:none;stroke-width:0.61798;stroke-linecap:round;stroke-linejoin:round;stroke-dashoffset:4.65639;stroke-opacity:1"
             d="m 194.65453,75.853292 2.67212,1.551564 2.6721,1.551565 2.67211,1.551559 2.67211,1.551558 2.67211,1.551559 2.67211,1.551559 2.67975,-1.53834 2.67974,-1.538334 2.67974,-1.53834 2.67975,-1.53834 2.67974,-1.538346 2.67975,-1.538352 -2.67211,-1.551559 -2.67211,-1.551565 -2.67212,-1.551555 -2.67212,-1.551557 -2.6721,-1.551558 -2.67212,-1.551557 -2.67974,1.53834 -2.67975,1.538338 -2.67974,1.538339 -2.67973,1.538337 -2.67974,1.538345 z"
             id="path2810"
             sodipodi:nodetypes="ccccccccccccccccccccccccc" /><g
             id="g3227"
             style="fill:#000000;fill-opacity:0.980392"
             transform="matrix(0.64909283,0,0,0.64909283,53.722769,62.289374)"><path
               style="fill:#000000;fill-opacity:0.980392;stroke:none;stroke-width:0.0172496;stroke-opacity:0.980392;paint-order:stroke fill markers"
               d="m 237.37782,26.348338 0.005,-1.935784 -5.90386,-3.454749 5.92123,-3.577969 0.004,-1.812504 -9.34992,5.367447 z"
               id="path3517"
               sodipodi:nodetypes="ccccccc" /><path
               style="fill:#000000;fill-opacity:0.980392;stroke:none;stroke-width:0.0479999;stroke-opacity:0.980392;paint-order:stroke fill markers"
               d="m 234.10773,26.63327 14.1793,-12.765084 1.41422,1.414216 -14.17931,12.765082 z"
               id="path3519"
               sodipodi:nodetypes="ccccc" /><path
               style="fill:#000000;fill-opacity:0.980392;stroke:none;stroke-width:0.0172496;stroke-opacity:0.980392;paint-order:stroke fill markers"
               d="m 246.3352,15.567332 -0.005,1.935784 5.90386,3.454749 -5.92124,3.577969 -0.004,1.812504 9.34993,-5.367446 z"
               id="path2787"
               sodipodi:nodetypes="ccccccc" /></g></g></g><g
         id="g4249"
         style="fill:#164450;fill-opacity:1"
         transform="matrix(1.7957738,0,0,1.7957738,-161.65865,-78.949312)"><path
           style="fill:#164450;fill-opacity:1;stroke:#18c8e3;stroke-width:0.248;stroke-linecap:butt;stroke-linejoin:round;stroke-dasharray:0.248, 0.248;stroke-dashoffset:0;stroke-opacity:1;paint-order:markers stroke fill"
           d="m 184.5784,84.938692 10.07613,-1.147898 16.03266,9.309366 -0.0479,6.827799 z"
           id="path4243"
           sodipodi:nodetypes="ccccc" /><path
           style="fill:#164450;fill-opacity:1;stroke:#18c8e3;stroke-width:0.248;stroke-linecap:butt;stroke-linejoin:round;stroke-dasharray:0.248, 0.248;stroke-dashoffset:0;stroke-opacity:1;paint-order:markers stroke fill"
           d="m 236.67609,84.938692 -10.07613,-1.147898 -15.91277,9.309366 -0.057,6.843866 z"
           id="path4245"
           sodipodi:nodetypes="ccccc" /></g><g
         id="g4460"
         style="stroke:#18c8e3;stroke-width:0.2;stroke-dasharray:none;stroke-opacity:1"
         transform="matrix(1.7957738,0,0,1.7957738,-161.65865,-78.949312)"><path
           style="fill:#19cae5;fill-opacity:0.988235;stroke:#18c8e3;stroke-width:0.2;stroke-linecap:butt;stroke-linejoin:round;stroke-dasharray:none;stroke-dashoffset:4.65639;stroke-opacity:1;paint-order:markers stroke fill"
           d="m 236.48836,84.938692 v 5 5 5 4.999998 5 5 l -4.33013,2.5 -4.33013,2.5 -4.33012,2.5 v -5 -5 -5 -5 l -4.33013,2.5 -4.33013,2.5 -4.33013,2.5 v -5 -4.999998 l 4.33013,-2.5 4.33013,-2.5 4.33013,-2.5 4.33012,-2.5 4.33013,-2.5 z"
           id="path2890" /><path
           style="fill:#19cae5;fill-opacity:0.988235;stroke:#18c8e3;stroke-width:0.2;stroke-linecap:round;stroke-linejoin:round;stroke-dasharray:none;stroke-dashoffset:4.65639;stroke-opacity:1;paint-order:markers stroke fill"
           d="m 184.5784,84.938692 v 5 5 5 4.999998 5 5 l 4.33013,2.5 4.33013,2.5 4.33012,2.5 v -5 -5 -5 -5 l 4.33013,2.5 4.33013,2.5 4.33013,2.5 v -5 -4.999998 l -4.33013,-2.5 -4.33013,-2.5 -4.33013,-2.5 -4.33012,-2.5 -4.33013,-2.5 z"
           id="path2810-3" /></g></g></g></svg>
