<?xml version="1.0" encoding="UTF-8" standalone="no"?>
<!-- Created with Inkscape (http://www.inkscape.org/) -->

<svg
   width="126.93237mm"
   height="146.73904mm"
   viewBox="0 0 126.93237 146.73904"
   version="1.1"
   id="svg5"
   xml:space="preserve"
   xmlns:inkscape="http://www.inkscape.org/namespaces/inkscape"
   xmlns:sodipodi="http://sodipodi.sourceforge.net/DTD/sodipodi-0.dtd"
   xmlns="http://www.w3.org/2000/svg"
   xmlns:svg="http://www.w3.org/2000/svg"><sodipodi:namedview
     id="namedview7"
     pagecolor="#505050"
     bordercolor="#eeeeee"
     borderopacity="1"
     inkscape:showpageshadow="0"
     inkscape:pageopacity="0"
     inkscape:pagecheckerboard="0"
     inkscape:deskcolor="#505050"
     inkscape:document-units="mm"
     showgrid="true"
     inkscape:zoom="0.42404602"
     inkscape:cx="674.4551"
     inkscape:cy="352.55608"
     inkscape:window-width="1366"
     inkscape:window-height="704"
     inkscape:window-x="0"
     inkscape:window-y="0"
     inkscape:window-maximized="1"
     inkscape:current-layer="layer1"><inkscape:grid
       type="axonomgrid"
       id="grid5553"
       enabled="true" /></sodipodi:namedview><defs
     id="defs2" /><g
     inkscape:label="Camada 1"
     inkscape:groupmode="layer"
     id="layer1"
     transform="translate(-155.82812,-5.1053482)"><g
       id="g8442"><path
         style="fill:none;fill-opacity:1;stroke:#868e96;stroke-width:1.72467;stroke-dasharray:none;stroke-opacity:1;paint-order:stroke fill markers"
         d="m 156.69045,42.307573 v 72.360567 l 62.66603,36.18027 62.54167,-36.18027 V 42.307573 L 219.37143,6.1015125 Z"
         id="path7380" /><path
         style="fill:#000000;fill-opacity:1;stroke:none;stroke-width:1.58074;stroke-dasharray:none;stroke-opacity:1;paint-order:stroke fill markers"
         d="m 161.9152,45.326033 v 66.321557 l 57.43609,33.16076 57.32211,-33.16076 V 45.326033 L 219.365,12.141634 Z"
         id="path5188" /><path
         style="fill:none;fill-opacity:1;stroke:none;stroke-width:1.40617;stroke-dasharray:none;stroke-opacity:1;paint-order:stroke fill markers"
         d="M 168.25228,48.987058 V 107.9839 L 219.345,137.48232 270.33632,107.9839 V 48.987058 L 219.35719,19.467623 Z"
         id="path1925" /><path
         style="fill:#164450;fill-opacity:1;stroke:#18c8e3;stroke-width:0.448455;stroke-linecap:butt;stroke-linejoin:round;stroke-dasharray:0.448455, 0.448455;stroke-dashoffset:0;stroke-opacity:1;paint-order:markers stroke fill"
         d="m 266.07272,51.363338 -46.95035,-26.148449 -0.0302,42.589169 0.12278,10.664129 z"
         id="path4126"
         sodipodi:nodetypes="ccccc" /><path
         style="fill:#000000;fill-opacity:0.980392;stroke:none;stroke-width:1.80828;stroke-linecap:round;stroke-linejoin:round;stroke-dashoffset:4.65639;stroke-opacity:1"
         d="m 172.151,105.50551 7.81891,4.54006 7.81891,4.54004 7.81891,4.54005 7.81892,4.54004 7.8189,4.54003 7.81892,4.54004 7.84124,-4.50136 7.84124,-4.50133 7.84123,-4.50136 7.84123,-4.50136 7.84125,-4.50138 7.84124,-4.5014 -7.8189,-4.54005 -7.81892,-4.540042 -7.81891,-4.540049 -7.81889,-4.54007 -7.81891,-4.540059 -7.81892,-4.54007 -7.84123,4.50139 -7.84125,4.50137 -7.84124,4.5014 -7.84124,4.50136 -7.84124,4.50138 z"
         id="path5944" /><path
         style="fill:#164450;fill-opacity:1;stroke:#18c8e3;stroke-width:0.448455;stroke-dasharray:0.448455, 0.448455;stroke-dashoffset:0;stroke-opacity:1;paint-order:markers stroke fill"
         d="m 242.46711,119.17397 -9.78568,-4.40086 0.10289,-13.25507 -1.96909,-8.112111 -11.83843,3.164502 23.49031,-13.562133 z"
         id="path2760"
         sodipodi:nodetypes="ccccccc" /><path
         style="fill:#164450;fill-opacity:1;stroke:#18c8e3;stroke-width:0.448455;stroke-linecap:butt;stroke-linejoin:round;stroke-dasharray:0.448455, 0.448455;stroke-dashoffset:0;stroke-opacity:1;paint-order:markers stroke fill"
         d="m 172.08947,51.363338 46.95034,-26.148449 0.0302,42.589169 -0.12278,10.664129 z"
         id="path3206"
         sodipodi:nodetypes="ccccc" /><path
         style="fill:#164450;fill-opacity:1;stroke:#18c8e3;stroke-width:0.448455;stroke-dasharray:0.448455, 0.448455;stroke-dashoffset:0;stroke-opacity:1;paint-order:markers stroke fill"
         d="m 195.57976,119.17397 7.83009,-4.52071 V 91.145582 l 3.91506,-1.356213 11.74516,6.781062 -23.49031,-13.562133 z"
         id="path3166"
         sodipodi:nodetypes="ccccccc" /><g
         id="g4029"
         transform="matrix(1.8082838,0,0,1.8082838,-209.5251,-50.241186)"><path
           style="fill:#164450;fill-opacity:1;stroke:#18c8e3;stroke-width:0.248;stroke-linecap:butt;stroke-linejoin:round;stroke-dasharray:0.248, 0.248;stroke-dashoffset:0;stroke-opacity:1;paint-order:markers stroke fill"
           d="m 245.73365,78.168534 -2.21664,-0.75 -6.4952,3.749999 0.0516,2.000001 z"
           id="path2912"
           sodipodi:nodetypes="ccccc" /><g
           id="g4050"
           transform="translate(-1.0583333)"><g
             id="g4039"><path
               style="fill:#164450;fill-opacity:1;stroke:#18c8e3;stroke-width:0.248;stroke-dasharray:0.248, 0.248;stroke-dashoffset:0;stroke-opacity:1;paint-order:markers stroke fill"
               d="m 245.00419,87.188373 -3.31138,-1.203016 -3.61683,2.203014 v 3.000002 z"
               id="path2968" /><path
               style="fill:#164450;fill-opacity:1;stroke:#18c8e3;stroke-width:0.248;stroke-dasharray:0.248, 0.248;stroke-dashoffset:0;stroke-opacity:1;paint-order:markers stroke fill"
               d="m 238.07598,101.18838 v -6.000007 -7 l 0.74221,-0.452082 2.7219,1.452082 -0.17676,4.102052 0.17675,5.915513 z"
               id="path3162"
               sodipodi:nodetypes="cccccccc" /><path
               style="fill:#19cae5;fill-opacity:0.988235;stroke:none;stroke-width:1;stroke-linecap:round;stroke-linejoin:round;stroke-dashoffset:4.65639;stroke-opacity:1"
               d="m 238.07598,91.188373 4.33013,-2.5 2.59808,-1.5 v 4 l -2.59808,1.5 -4.33013,2.5 z"
               id="path2950" /></g><path
             style="fill:#19cae5;fill-opacity:0.988235;stroke:none;stroke-width:1;stroke-linecap:round;stroke-linejoin:round;stroke-dashoffset:4.65639;stroke-opacity:1"
             d="m 238.07598,83.188373 4.33013,-2.5 4.33013,-2.5 v 5 l -4.33013,2.5 -4.33013,2.5 z"
             id="path2948" /></g></g><g
         id="g4054"
         transform="matrix(1.8082838,0,0,1.8082838,-209.5251,-50.241186)"><path
           style="fill:#164450;fill-opacity:1;stroke:#18c8e3;stroke-width:0.248;stroke-dasharray:0.248, 0.248;stroke-dashoffset:0;stroke-opacity:1;paint-order:markers stroke fill"
           d="m 228.35739,78.188372 2.16506,-0.75 6.4952,3.75 -1e-5,2.000001 z"
           id="path3164" /><path
           style="fill:#19cae5;fill-opacity:0.988235;stroke:none;stroke-width:1;stroke-linecap:round;stroke-linejoin:round;stroke-dashoffset:4.65639;stroke-opacity:1"
           d="m 237.01764,101.18838 v -5.000007 -5 -5 -3 l -8.66025,-5 v 3 5.0838 4.9162 5 l 4.33013,2.5 z"
           id="path2946" /></g><path
         style="fill:#000000;fill-opacity:1;stroke:none;stroke-width:1.11748;stroke-linecap:round;stroke-linejoin:round;stroke-dashoffset:4.65639;stroke-opacity:1"
         d="m 190.30998,49.287616 4.83194,2.805668 4.83192,2.80567 4.83193,2.805659 4.83193,2.805657 4.83193,2.805659 4.83194,2.805659 4.84575,-2.781756 4.84572,-2.781745 4.84574,-2.781753 4.84574,-2.781756 4.84573,-2.781767 4.84575,-2.781776 -4.83193,-2.805659 -4.83193,-2.805671 -4.83195,-2.80565 -4.83195,-2.805656 -4.83193,-2.805657 -4.83194,-2.805655 -4.84573,2.781754 -4.84576,2.781752 -4.84572,2.781754 -4.84572,2.78175 -4.84573,2.781763 z"
         id="path4149"
         sodipodi:nodetypes="ccccccccccccccccccccccccc" /><g
         id="g4241"
         transform="matrix(1.8082838,0,0,1.8082838,-161.68066,-102.22992)"><path
           style="fill:#164450;fill-opacity:1;stroke:#18c8e3;stroke-width:0.250161;stroke-linecap:butt;stroke-linejoin:round;stroke-dasharray:0.250161, 0.250161;stroke-dashoffset:0;stroke-opacity:1;paint-order:markers stroke fill"
           d="m 194.65454,75.855186 v 4.841263 l 16.04428,9.206529 -0.0116,-4.740321 z"
           id="path3773"
           sodipodi:nodetypes="ccccc" /><path
           style="fill:#164450;fill-opacity:1;stroke:#18c8e3;stroke-width:0.250161;stroke-linecap:butt;stroke-linejoin:round;stroke-dasharray:0.250161, 0.250161;stroke-dashoffset:0;stroke-opacity:1;paint-order:markers stroke fill"
           d="m 226.71178,75.855186 v 4.841263 l -16.04427,9.206529 0.0116,-4.740321 z"
           id="path4002"
           sodipodi:nodetypes="ccccc" /><g
           id="g4229"><path
             style="fill:#18c8e3;fill-opacity:1;stroke:none;stroke-width:0.61798;stroke-linecap:round;stroke-linejoin:round;stroke-dashoffset:4.65639;stroke-opacity:1"
             d="m 194.65453,75.853292 2.67212,1.551564 2.6721,1.551565 2.67211,1.551559 2.67211,1.551558 2.67211,1.551559 2.67211,1.551559 2.67975,-1.53834 2.67974,-1.538334 2.67974,-1.53834 2.67975,-1.53834 2.67974,-1.538346 2.67975,-1.538352 -2.67211,-1.551559 -2.67211,-1.551565 -2.67212,-1.551555 -2.67212,-1.551557 -2.6721,-1.551558 -2.67212,-1.551557 -2.67974,1.53834 -2.67975,1.538338 -2.67974,1.538339 -2.67973,1.538337 -2.67974,1.538345 z"
             id="path2810"
             sodipodi:nodetypes="ccccccccccccccccccccccccc" /><g
             id="g3227"
             style="fill:#000000;fill-opacity:0.980392"
             transform="matrix(0.64909283,0,0,0.64909283,53.722769,62.289374)"><path
               style="fill:#000000;fill-opacity:0.980392;stroke:none;stroke-width:0.0172496;stroke-opacity:0.980392;paint-order:stroke fill markers"
               d="m 237.37782,26.348338 0.005,-1.935784 -5.90386,-3.454749 5.92123,-3.577969 0.004,-1.812504 -9.34992,5.367447 z"
               id="path3517"
               sodipodi:nodetypes="ccccccc" /><path
               style="fill:#000000;fill-opacity:0.980392;stroke:none;stroke-width:0.0479999;stroke-opacity:0.980392;paint-order:stroke fill markers"
               d="m 234.10773,26.63327 14.1793,-12.765084 1.41422,1.414216 -14.17931,12.765082 z"
               id="path3519"
               sodipodi:nodetypes="ccccc" /><path
               style="fill:#000000;fill-opacity:0.980392;stroke:none;stroke-width:0.0172496;stroke-opacity:0.980392;paint-order:stroke fill markers"
               d="m 246.3352,15.567332 -0.005,1.935784 5.90386,3.454749 -5.92124,3.577969 -0.004,1.812504 9.34993,-5.367446 z"
               id="path2787"
               sodipodi:nodetypes="ccccccc" /></g></g></g><g
         id="g4249"
         style="fill:#164450;fill-opacity:1"
         transform="matrix(1.8082838,0,0,1.8082838,-161.68066,-102.22992)"><path
           style="fill:#164450;fill-opacity:1;stroke:#18c8e3;stroke-width:0.248;stroke-linecap:butt;stroke-linejoin:round;stroke-dasharray:0.248, 0.248;stroke-dashoffset:0;stroke-opacity:1;paint-order:markers stroke fill"
           d="m 184.5784,84.938692 10.07613,-1.147898 16.03266,9.309366 -0.0479,6.827799 z"
           id="path4243"
           sodipodi:nodetypes="ccccc" /><path
           style="fill:#164450;fill-opacity:1;stroke:#18c8e3;stroke-width:0.248;stroke-linecap:butt;stroke-linejoin:round;stroke-dasharray:0.248, 0.248;stroke-dashoffset:0;stroke-opacity:1;paint-order:markers stroke fill"
           d="m 236.67609,84.938692 -10.07613,-1.147898 -15.91277,9.309366 -0.057,6.843866 z"
           id="path4245"
           sodipodi:nodetypes="ccccc" /></g><g
         id="g4460"
         style="stroke:#18c8e3;stroke-width:0.2;stroke-dasharray:none;stroke-opacity:1"
         transform="matrix(1.8082838,0,0,1.8082838,-161.68066,-102.22992)"><path
           style="fill:#19cae5;fill-opacity:0.988235;stroke:#18c8e3;stroke-width:0.2;stroke-linecap:butt;stroke-linejoin:round;stroke-dasharray:none;stroke-dashoffset:4.65639;stroke-opacity:1;paint-order:markers stroke fill"
           d="m 236.48836,84.938692 v 5 5 5 4.999998 5 5 l -4.33013,2.5 -4.33013,2.5 -4.33012,2.5 v -5 -5 -5 -5 l -4.33013,2.5 -4.33013,2.5 -4.33013,2.5 v -5 -4.999998 l 4.33013,-2.5 4.33013,-2.5 4.33013,-2.5 4.33012,-2.5 4.33013,-2.5 z"
           id="path2890" /><path
           style="fill:#19cae5;fill-opacity:0.988235;stroke:#18c8e3;stroke-width:0.2;stroke-linecap:round;stroke-linejoin:round;stroke-dasharray:none;stroke-dashoffset:4.65639;stroke-opacity:1;paint-order:markers stroke fill"
           d="m 184.5784,84.938692 v 5 5 5 4.999998 5 5 l 4.33013,2.5 4.33013,2.5 4.33012,2.5 v -5 -5 -5 -5 l 4.33013,2.5 4.33013,2.5 4.33013,2.5 v -5 -4.999998 l -4.33013,-2.5 -4.33013,-2.5 -4.33013,-2.5 -4.33012,-2.5 -4.33013,-2.5 z"
           id="path2810-3" /></g></g></g></svg>
