<?xml version="1.0" encoding="UTF-8" standalone="no"?>
<!-- Created with Inkscape (http://www.inkscape.org/) -->

<svg
   width="309.74554mm"
   height="254.97208mm"
   viewBox="0 0 309.74554 254.97208"
   version="1.1"
   id="svg5"
   xml:space="preserve"
   xmlns:inkscape="http://www.inkscape.org/namespaces/inkscape"
   xmlns:sodipodi="http://sodipodi.sourceforge.net/DTD/sodipodi-0.dtd"
   xmlns="http://www.w3.org/2000/svg"
   xmlns:svg="http://www.w3.org/2000/svg"><sodipodi:namedview
     id="namedview7"
     pagecolor="#505050"
     bordercolor="#eeeeee"
     borderopacity="1"
     inkscape:showpageshadow="0"
     inkscape:pageopacity="0"
     inkscape:pagecheckerboard="0"
     inkscape:deskcolor="#505050"
     inkscape:document-units="mm"
     showgrid="true"
     inkscape:zoom="0.84809203"
     inkscape:cx="800.62066"
     inkscape:cy="321.30947"
     inkscape:window-width="1366"
     inkscape:window-height="704"
     inkscape:window-x="0"
     inkscape:window-y="0"
     inkscape:window-maximized="1"
     inkscape:current-layer="layer1"
     showguides="false"><inkscape:grid
       type="axonomgrid"
       id="grid5553"
       enabled="true" /></sodipodi:namedview><defs
     id="defs2" /><g
     inkscape:label="Camada 1"
     inkscape:groupmode="layer"
     id="layer1"
     transform="translate(-42.196524,49.275624)"><g
       id="g10012"><path
         style="fill:none;fill-opacity:1;stroke:none;stroke-width:2.46834;stroke-dasharray:none;stroke-opacity:1;paint-order:stroke fill markers"
         d="M 129.69639,26.712638 V 130.27426 l 89.6869,51.78078 89.50892,-51.78078 V 26.712638 L 219.4047,-25.105057 Z"
         id="path5188" /><path
         style="fill:#000000;fill-opacity:1;stroke:none;stroke-width:1.19063;stroke-dasharray:none;stroke-opacity:1;paint-order:stroke fill markers"
         d="M 176.07566,53.506792 V 103.461 l 43.26157,24.97708 43.17571,-24.97708 V 53.506792 L 219.34755,28.511899 Z"
         id="path9767" /><g
         id="g9765"
         transform="matrix(0.59799799,0,0,0.59799799,88.15675,31.547111)"><path
           style="fill:none;fill-opacity:1;stroke:#18c8e3;stroke-width:1.79076;stroke-miterlimit:0;stroke-dasharray:none;stroke-dashoffset:0;stroke-opacity:1;paint-order:stroke fill markers"
           d="m 284.29722,40.921586 v 75.133534 l -65.06748,37.56675 -64.93836,-37.56675 V 40.921586 L 219.21422,3.3280532 Z"
           id="path8612" /><path
           style="fill:none;fill-opacity:1;stroke:none;stroke-width:1.40617;stroke-dasharray:none;stroke-opacity:1;paint-order:stroke fill markers"
           d="M 168.25228,48.987058 V 107.9839 L 219.345,137.48232 270.33632,107.9839 V 48.987058 L 219.35719,19.467623 Z"
           id="path1925" /><path
           style="fill:#164450;fill-opacity:1;stroke:#18c8e3;stroke-width:0.448455;stroke-linecap:butt;stroke-linejoin:round;stroke-dasharray:0.448455, 0.448455;stroke-dashoffset:0;stroke-opacity:1;paint-order:markers stroke fill"
           d="m 266.07272,51.363338 -46.95035,-26.148449 -0.0302,42.589169 0.12278,10.664129 z"
           id="path4126"
           sodipodi:nodetypes="ccccc" /><path
           style="fill:#000000;fill-opacity:0.980392;stroke:none;stroke-width:1.80828;stroke-linecap:round;stroke-linejoin:round;stroke-dashoffset:4.65639;stroke-opacity:1"
           d="m 172.151,105.50551 7.81891,4.54006 7.81891,4.54004 7.81891,4.54005 7.81892,4.54004 7.8189,4.54003 7.81892,4.54004 7.84124,-4.50136 7.84124,-4.50133 7.84123,-4.50136 7.84123,-4.50136 7.84125,-4.50138 7.84124,-4.5014 -7.8189,-4.54005 -7.81892,-4.540042 -7.81891,-4.540049 -7.81889,-4.54007 -7.81891,-4.540059 -7.81892,-4.54007 -7.84123,4.50139 -7.84125,4.50137 -7.84124,4.5014 -7.84124,4.50136 -7.84124,4.50138 z"
           id="path5944" /><path
           style="fill:#164450;fill-opacity:1;stroke:#18c8e3;stroke-width:0.448455;stroke-dasharray:0.448455, 0.448455;stroke-dashoffset:0;stroke-opacity:1;paint-order:markers stroke fill"
           d="m 242.46711,119.17397 -9.78568,-4.40086 0.10289,-13.25507 -1.96909,-8.112111 -11.83843,3.164502 23.49031,-13.562133 z"
           id="path2760"
           sodipodi:nodetypes="ccccccc" /><path
           style="fill:#164450;fill-opacity:1;stroke:#18c8e3;stroke-width:0.448455;stroke-linecap:butt;stroke-linejoin:round;stroke-dasharray:0.448455, 0.448455;stroke-dashoffset:0;stroke-opacity:1;paint-order:markers stroke fill"
           d="m 172.08947,51.363338 46.95034,-26.148449 0.0302,42.589169 -0.12278,10.664129 z"
           id="path3206"
           sodipodi:nodetypes="ccccc" /><path
           style="fill:#164450;fill-opacity:1;stroke:#18c8e3;stroke-width:0.448455;stroke-dasharray:0.448455, 0.448455;stroke-dashoffset:0;stroke-opacity:1;paint-order:markers stroke fill"
           d="m 195.57976,119.17397 7.83009,-4.52071 V 91.145582 l 3.91506,-1.356213 11.74516,6.781062 -23.49031,-13.562133 z"
           id="path3166"
           sodipodi:nodetypes="ccccccc" /><path
           style="fill:#164450;fill-opacity:1;stroke:#18c8e3;stroke-width:0.448454;stroke-linecap:butt;stroke-linejoin:round;stroke-dasharray:0.448454, 0.448454;stroke-dashoffset:0;stroke-opacity:1;paint-order:markers stroke fill"
           d="m 234.83108,91.109708 -4.00832,-1.356213 -11.74516,6.781062 0.0933,3.616573 z"
           id="path2912"
           sodipodi:nodetypes="ccccc" /><g
           id="g4050"
           transform="matrix(1.8082838,0,0,1.8082838,-211.43887,-50.241186)"><g
             id="g4039"><path
               style="fill:#164450;fill-opacity:1;stroke:#18c8e3;stroke-width:0.248;stroke-dasharray:0.248, 0.248;stroke-dashoffset:0;stroke-opacity:1;paint-order:markers stroke fill"
               d="m 245.00419,87.188373 -3.31138,-1.203016 -3.61683,2.203014 v 3.000002 z"
               id="path2968" /><path
               style="fill:#164450;fill-opacity:1;stroke:#18c8e3;stroke-width:0.248;stroke-dasharray:0.248, 0.248;stroke-dashoffset:0;stroke-opacity:1;paint-order:markers stroke fill"
               d="m 238.07598,101.18838 v -6.000007 -7 l 0.74221,-0.452082 2.7219,1.452082 -0.17676,4.102052 0.17675,5.915513 z"
               id="path3162"
               sodipodi:nodetypes="cccccccc" /><path
               style="fill:#19cae5;fill-opacity:0.988235;stroke:none;stroke-width:1;stroke-linecap:round;stroke-linejoin:round;stroke-dashoffset:4.65639;stroke-opacity:1"
               d="m 238.07598,91.188373 4.33013,-2.5 2.59808,-1.5 v 4 l -2.59808,1.5 -4.33013,2.5 z"
               id="path2950" /></g><path
             style="fill:#19cae5;fill-opacity:0.988235;stroke:none;stroke-width:1;stroke-linecap:round;stroke-linejoin:round;stroke-dashoffset:4.65639;stroke-opacity:1"
             d="m 238.07598,83.188373 4.33013,-2.5 4.33013,-2.5 v 5 l -4.33013,2.5 -4.33013,2.5 z"
             id="path2948" /></g><path
           style="fill:#164450;fill-opacity:1;stroke:#18c8e3;stroke-width:0.448454;stroke-dasharray:0.448454, 0.448454;stroke-dashoffset:0;stroke-opacity:1;paint-order:markers stroke fill"
           d="m 203.40987,91.14558 3.91504,-1.356212 11.74517,6.781064 -2e-5,3.616568 z"
           id="path3164" /><path
           style="fill:#19cae5;fill-opacity:0.988235;stroke:none;stroke-width:1.80828;stroke-linecap:round;stroke-linejoin:round;stroke-dashoffset:4.65639;stroke-opacity:1"
           d="m 219.07006,132.73612 v -9.04143 -9.04142 -9.04142 -5.42485 l -15.66019,-9.041418 v 5.424852 9.192956 8.88988 9.04142 l 7.8301,4.52071 z"
           id="path2946" /><path
           style="fill:#000000;fill-opacity:1;stroke:none;stroke-width:1.11748;stroke-linecap:round;stroke-linejoin:round;stroke-dashoffset:4.65639;stroke-opacity:1"
           d="m 190.30998,49.287616 4.83194,2.805668 4.83192,2.80567 4.83193,2.805659 4.83193,2.805657 4.83193,2.805659 4.83194,2.805659 4.84575,-2.781756 4.84572,-2.781745 4.84574,-2.781753 4.84574,-2.781756 4.84573,-2.781767 4.84575,-2.781776 -4.83193,-2.805659 -4.83193,-2.805671 -4.83195,-2.80565 -4.83195,-2.805656 -4.83193,-2.805657 -4.83194,-2.805655 -4.84573,2.781754 -4.84576,2.781752 -4.84572,2.781754 -4.84572,2.78175 -4.84573,2.781763 z"
           id="path4149"
           sodipodi:nodetypes="ccccccccccccccccccccccccc" /><path
           style="fill:#164450;fill-opacity:1;stroke:#18c8e3;stroke-width:0.452362;stroke-linecap:butt;stroke-linejoin:round;stroke-dasharray:0.452362, 0.452362;stroke-dashoffset:0;stroke-opacity:1;paint-order:markers stroke fill"
           d="m 190.30999,34.937784 v 8.754377 l 29.01261,16.648018 -0.021,-8.571846 z"
           id="path3773"
           sodipodi:nodetypes="ccccc" /><path
           style="fill:#164450;fill-opacity:1;stroke:#18c8e3;stroke-width:0.452362;stroke-linecap:butt;stroke-linejoin:round;stroke-dasharray:0.452362, 0.452362;stroke-dashoffset:0;stroke-opacity:1;paint-order:markers stroke fill"
           d="m 248.27858,34.937784 v 8.754377 l -29.01259,16.648018 0.021,-8.571846 z"
           id="path4002"
           sodipodi:nodetypes="ccccc" /><g
           id="g4229"
           transform="matrix(1.8082838,0,0,1.8082838,-161.68066,-102.22992)"><path
             style="fill:#18c8e3;fill-opacity:1;stroke:none;stroke-width:0.61798;stroke-linecap:round;stroke-linejoin:round;stroke-dashoffset:4.65639;stroke-opacity:1"
             d="m 194.65453,75.853292 2.67212,1.551564 2.6721,1.551565 2.67211,1.551559 2.67211,1.551558 2.67211,1.551559 2.67211,1.551559 2.67975,-1.53834 2.67974,-1.538334 2.67974,-1.53834 2.67975,-1.53834 2.67974,-1.538346 2.67975,-1.538352 -2.67211,-1.551559 -2.67211,-1.551565 -2.67212,-1.551555 -2.67212,-1.551557 -2.6721,-1.551558 -2.67212,-1.551557 -2.67974,1.53834 -2.67975,1.538338 -2.67974,1.538339 -2.67973,1.538337 -2.67974,1.538345 z"
             id="path2810"
             sodipodi:nodetypes="ccccccccccccccccccccccccc" /><g
             id="g3227"
             style="fill:#000000;fill-opacity:0.980392"
             transform="matrix(0.64909283,0,0,0.64909283,53.722769,62.289374)"><path
               style="fill:#000000;fill-opacity:0.980392;stroke:none;stroke-width:0.0172496;stroke-opacity:0.980392;paint-order:stroke fill markers"
               d="m 237.37782,26.348338 0.005,-1.935784 -5.90386,-3.454749 5.92123,-3.577969 0.004,-1.812504 -9.34992,5.367447 z"
               id="path3517"
               sodipodi:nodetypes="ccccccc" /><path
               style="fill:#000000;fill-opacity:0.980392;stroke:none;stroke-width:0.0479999;stroke-opacity:0.980392;paint-order:stroke fill markers"
               d="m 234.10773,26.63327 14.1793,-12.765084 1.41422,1.414216 -14.17931,12.765082 z"
               id="path3519"
               sodipodi:nodetypes="ccccc" /><path
               style="fill:#000000;fill-opacity:0.980392;stroke:none;stroke-width:0.0172496;stroke-opacity:0.980392;paint-order:stroke fill markers"
               d="m 246.3352,15.567332 -0.005,1.935784 5.90386,3.454749 -5.92124,3.577969 -0.004,1.812504 9.34993,-5.367446 z"
               id="path2787"
               sodipodi:nodetypes="ccccccc" /></g></g><path
           style="fill:#164450;fill-opacity:1;stroke:#18c8e3;stroke-width:0.448454;stroke-linecap:butt;stroke-linejoin:round;stroke-dasharray:0.448454, 0.448454;stroke-dashoffset:0;stroke-opacity:1;paint-order:markers stroke fill"
           d="m 172.08947,51.363341 18.2205,-2.075726 28.9916,16.833976 -0.0866,12.346598 z"
           id="path4243"
           sodipodi:nodetypes="ccccc" /><path
           style="fill:#164450;fill-opacity:1;stroke:#18c8e3;stroke-width:0.448454;stroke-linecap:butt;stroke-linejoin:round;stroke-dasharray:0.448454, 0.448454;stroke-dashoffset:0;stroke-opacity:1;paint-order:markers stroke fill"
           d="m 266.29688,51.363341 -18.2205,-2.075726 -28.77481,16.833976 -0.10307,12.375652 z"
           id="path4245"
           sodipodi:nodetypes="ccccc" /><path
           style="fill:#19cae5;fill-opacity:0.988235;stroke:#18c8e3;stroke-width:0.361657;stroke-linecap:butt;stroke-linejoin:round;stroke-dasharray:none;stroke-dashoffset:4.65639;stroke-opacity:1;paint-order:markers stroke fill"
           d="m 265.95741,51.363341 v 9.041419 9.041419 9.041419 9.041415 9.041419 9.041418 l -7.8301,4.52071 -7.83011,4.52071 -7.83008,4.52071 v -9.04142 -9.04142 -9.041417 -9.041419 l -7.83011,4.520709 -7.8301,4.52071 -7.83011,4.520709 v -9.041419 -9.041415 l 7.83011,-4.52071 7.8301,-4.520709 7.83011,-4.52071 7.83008,-4.520709 7.83011,-4.52071 z"
           id="path2890" /><path
           style="fill:#19cae5;fill-opacity:0.988235;stroke:#18c8e3;stroke-width:0.361657;stroke-linecap:round;stroke-linejoin:round;stroke-dasharray:none;stroke-dashoffset:4.65639;stroke-opacity:1;paint-order:markers stroke fill"
           d="m 172.08947,51.363341 v 9.041419 9.041419 9.041419 9.041415 9.041419 9.041418 l 7.8301,4.52071 7.83011,4.52071 7.83008,4.52071 v -9.04142 -9.04142 -9.041417 -9.041419 l 7.83011,4.520709 7.8301,4.52071 7.83011,4.520709 v -9.041419 -9.041415 l -7.83011,-4.52071 -7.8301,-4.520709 -7.83011,-4.52071 -7.83008,-4.520709 -7.83011,-4.52071 z"
           id="path2810-3" /></g><path
         style="fill:#000000;fill-opacity:1;stroke:none;stroke-width:1.19063;stroke-dasharray:none;stroke-opacity:1;paint-order:stroke fill markers"
         d="M 87.175714,53.506792 V 103.461 L 130.43726,128.43808 173.61297,103.461 V 53.506792 L 130.44758,28.511899 Z"
         id="path9959" /><path
         style="fill:#000000;fill-opacity:1;stroke:none;stroke-width:1.19063;stroke-dasharray:none;stroke-opacity:1;paint-order:stroke fill markers"
         d="m 131.62569,130.76513 v 49.95423 l 43.26157,24.97708 43.17571,-24.97708 v -49.95423 l -43.16539,-24.99491 z"
         id="path9961" /><path
         style="fill:#000000;fill-opacity:1;stroke:none;stroke-width:1.19063;stroke-dasharray:none;stroke-opacity:1;paint-order:stroke fill markers"
         d="m 220.52568,130.76513 v 49.95423 l 43.26157,24.97708 43.17571,-24.97708 v -49.95423 l -43.16539,-24.99491 z"
         id="path9963" /><path
         style="fill:#000000;fill-opacity:1;stroke:none;stroke-width:1.19063;stroke-dasharray:none;stroke-opacity:1;paint-order:stroke fill markers"
         d="m 265.50478,54.035978 v 49.954212 l 43.26157,24.97708 43.17571,-24.97708 V 54.035978 L 308.77667,29.041044 Z"
         id="path9965" /><path
         style="fill:#000000;fill-opacity:1;stroke:none;stroke-width:1.19063;stroke-dasharray:none;stroke-opacity:1;paint-order:stroke fill markers"
         d="m 42.196526,130.76513 v 49.95423 L 85.458075,205.69644 128.6338,180.71936 V 130.76513 L 85.468395,105.77022 Z"
         id="path9967" /><path
         style="fill:#000000;fill-opacity:1;stroke:none;stroke-width:1.19063;stroke-dasharray:none;stroke-opacity:1;paint-order:stroke fill markers"
         d="m 221.05475,-24.280691 v 49.954203 l 43.26157,24.977062 43.17571,-24.977062 v -49.954203 l -43.16539,-24.994934 z"
         id="path9969" /><path
         style="fill:#000000;fill-opacity:1;stroke:none;stroke-width:1.19063;stroke-dasharray:none;stroke-opacity:1;paint-order:stroke fill markers"
         d="m 131.62556,-24.280691 v 49.954203 l 43.26157,24.977062 43.17571,-24.977062 v -49.954203 l -43.16539,-24.994934 z"
         id="path9971" /></g></g></svg>
